<?xml version="1.0" encoding="UTF-8" standalone="no"?>
<svg
   width="153.99315"
   zoomAndPan="magnify"
   viewBox="0 0 115.49486 112.49999"
   height="150"
   preserveAspectRatio="xMidYMid"
   version="1.0"
   id="svg45"
   xmlns="http://www.w3.org/2000/svg"
   xmlns:svg="http://www.w3.org/2000/svg">
  <defs
     id="defs9" />
  <path
     id="path10"
     d="M 113.2413,64.286447 H 95.07286 c -1.24576,0 -2.25356,1.014801 -2.25356,2.267555 v 43.678438 c 0,1.25276 1.0078,2.26756 2.25356,2.26756 h 18.16844 c 1.24575,0 2.25356,-1.0148 2.25356,-2.26756 V 66.554002 c 0,-1.252754 -1.00781,-2.267555 -2.25356,-2.267555 z m -2.25705,43.681933 H 97.32992 V 68.818058 h 13.65433 z M 82.30037,49.711804 H 64.13543 c -1.24576,0 -2.25706,1.014801 -2.25706,2.267556 v 58.25308 c 0,1.25276 1.0113,2.26756 2.25706,2.26756 h 18.16494 c 1.24575,0 2.25706,-1.0148 2.25706,-2.26756 V 51.97936 c 0,-1.252755 -1.01131,-2.267556 -2.25706,-2.267556 z M 80.04681,107.96838 H 66.38899 V 54.243416 H 80.04681 Z M 51.36293,35.137161 H 33.19449 c -1.24575,0 -2.25355,1.014802 -2.25355,2.267555 v 72.827724 c 0,1.25276 1.0078,2.26756 2.25355,2.26756 h 18.16844 c 1.24576,0 2.25356,-1.0148 2.25356,-2.26756 V 37.404716 c 0,-1.252753 -1.0078,-2.267555 -2.25356,-2.267555 z M 49.10588,107.96838 H 35.45155 V 39.668773 H 49.10588 Z M 20.422,20.562519 H 2.25706 C 1.01131,20.562519 0,21.57732 0,22.826575 V 110.23244 C 0,111.4852 1.01131,112.5 2.25706,112.5 H 20.422 c 1.24575,0 2.25706,-1.0148 2.25706,-2.26756 V 22.826575 c 0,-1.249255 -1.01131,-2.264056 -2.25706,-2.264056 z M 18.16844,107.96838 H 4.51412 V 25.09413 H 18.16844 Z M 104.584,51.776399 C 93.19373,49.281388 76.73996,43.402541 60.7271,36.004991 47.81463,30.04216 24.17327,17.931035 10.93535,3.8183019 10.08153,2.9084803 10.12351,1.4737621 11.02985,0.6164295 11.93617,-0.24090219 13.36389,-0.19891042 14.21773,0.7109112 34.16732,21.972742 83.26269,42.615196 106.10271,47.468744 l -2.18357,-4.171182 c -0.58089,-1.109283 -0.15747,-2.477515 0.94831,-3.0619 1.10229,-0.580886 2.46352,-0.157469 3.04441,0.951814 l 4.67158,8.92325 c 0.27994,0.531895 0.33593,1.151274 0.15747,1.725162 -0.17497,0.573887 -0.57389,1.053293 -1.10228,1.333238 l -8.88476,4.69258 c -0.33594,0.178465 -0.69637,0.262449 -1.0498,0.262449 -0.81184,0 -1.59218,-0.440914 -1.99811,-1.214262 -0.58088,-1.105783 -0.15396,-2.477514 0.94832,-3.0584 z m 0,0"
     style="stroke-width:0.795824" />
</svg>
