<?xml version="1.0" encoding="UTF-8" standalone="no"?>
<svg
   width="151.52341"
   zoomAndPan="magnify"
   viewBox="0 0 113.64256 112.49999"
   height="150"
   preserveAspectRatio="xMidYMid"
   version="1.0"
   id="svg45"
   xmlns="http://www.w3.org/2000/svg"
   xmlns:svg="http://www.w3.org/2000/svg">
  <defs
     id="defs9" />
  <path
     id="text45"
     style="font-size:21.5294px;fill:#1a1a1a;stroke:#000000;stroke-width:0.887775;stroke-dasharray:none"
     d="m 44.574542,20.052808 h 1.88567 v 5.890375 l 6.25444,-5.890375 h 2.42709 l -6.91722,6.497148 7.41198,7.439983 h -2.48311 l -6.69318,-6.711853 v 6.711853 h -1.88567 z m 21.92788,1.073522 v 1.988352 q -0.95217,-0.886823 -2.03503,-1.325567 -1.07352,-0.438745 -2.28706,-0.438745 -2.38976,0 -3.65932,1.465593 -1.26956,1.456258 -1.26956,4.219413 0,2.75382 1.26956,4.219413 1.26956,1.456257 3.65932,1.456257 1.21354,0 2.28706,-0.438744 1.08286,-0.438744 2.03503,-1.325568 v 1.969682 q -0.98951,0.672119 -2.10037,1.008178 -1.10153,0.336059 -2.33374,0.336059 -3.16457,0 -4.98489,-1.932341 -1.82032,-1.941676 -1.82032,-5.292936 0,-3.360595 1.82032,-5.292936 1.82032,-1.941677 4.98489,-1.941677 1.25088,0 2.35241,0.33606 1.11086,0.326724 2.0817,0.989507 z m -5.60099,-2.39909 -1.96968,-2.483106 h 1.29756 l 1.54961,1.661628 1.54961,-1.661628 h 1.29756 l -1.96968,2.483106 z m 11.4648,35.151176 c -0.63131,0 -1.30078,-0.336468 -1.67194,-0.894935 -0.59661,-0.929622 -0.33646,-2.161024 0.55847,-2.754179 8.48107,-5.588139 13.54196,-14.93639 13.54196,-25.103265 0,-8.009319 -3.12533,-15.5330144 -8.77938,-21.1939967 -0.78393,-0.7804661 -0.78393,-2.0465557 0,-2.8304912 0.78047,-0.7804661 2.04656,-0.7804661 2.82702,0 6.39983,6.4067615 9.93447,14.9745469 9.93447,24.0244879 0,11.471121 -5.73035,22.123618 -15.33182,28.415911 -0.333,0.225468 -0.70416,0.336468 -1.07878,0.336468 z m 0,0 m -32.44659,1.488089 c -0.29831,0 -0.6313,-0.07284 -0.92962,-0.222 -11.1624,-5.921137 -18.12069,-17.430414 -18.12069,-30.094781 0,-9.088096 3.53465,-17.6177252 9.93447,-24.0210182 0.78046,-0.78393506 2.04656,-0.78393506 2.82702,0 0.78393,0.7804661 0.78393,2.0465566 0,2.8304912 -5.65405,5.6609823 -8.77938,13.184677 -8.77938,21.190527 0,11.172809 6.13967,21.343153 15.99783,26.556667 0.96777,0.520312 1.3424,1.713558 0.81861,2.681335 -0.33299,0.707624 -1.04061,1.078779 -1.74824,1.078779 z m 0,0 m 15.61885,-5.364658 c -13.61827,0 -24.70783,-11.099965 -24.70783,-24.73211 0,-13.632144 11.0514,-24.76679788 24.70783,-24.76679788 13.61827,0 24.70783,11.09649688 24.70783,24.72864188 0,13.632145 -11.08956,24.770266 -24.70783,24.770266 z m 0,-45.5133267 c -11.42256,0 -20.72571,9.3100957 -20.72571,20.7430607 0,11.436433 9.30315,20.746528 20.72571,20.746528 11.42256,0 20.72571,-9.310095 20.72571,-20.746528 0,-11.432965 -9.30315,-20.7430607 -20.72571,-20.7430607 z m 0,0 M 13.241572,90.900268 c -0.70762,0 -1.44993,-0.111 -2.15755,-0.409314 L 4.2748818,87.84431 c -1.48809,-0.558467 -2.68133,-1.713557 -3.31264996,-3.16349 -0.63131,-1.453402 -0.70762,-3.094116 -0.111,-4.582205 L 10.265392,55.630129 c 1.18978,-3.055959 4.50242,-4.582204 7.58961,-3.503426 l 7.29475,2.608491 c 1.52277,0.558467 2.78887,1.713557 3.45833,3.239802 0.66947,1.48809 0.66947,3.239803 0.0382,4.731361 l -0.14916,0.332999 -9.74716,24.246487 c -1.00593,2.233864 -3.20164,3.614425 -5.50836,3.614425 z m 2.56687,-35.086296 c -0.81863,0 -1.56093,0.485624 -1.85925,1.26609 L 4.5350418,81.552017 c -0.18732,0.482154 -0.18732,1.040621 0.0382,1.526245 0.222,0.485623 0.59315,0.856778 1.11346,1.044091 l 6.8091402,2.643179 c 1.00593,0.371155 2.12287,-0.07632 2.57033,-1.078778 l 0.0728,-0.187312 9.78531,-24.357487 c 0.22547,-0.523779 0.22547,-1.082247 0,-1.564401 -0.222,-0.523779 -0.6313,-0.894935 -1.15162,-1.082246 l -7.29475,-2.605024 c -0.222,-0.03816 -0.44747,-0.07631 -0.66947,-0.07631 z m 0,0 m 85.025728,35.755766 c -2.643178,0 -5.060888,-1.751717 -5.768508,-4.433051 l -6.80913,-25.137953 c -0.40932,-1.564401 -0.22548,-3.166959 0.59315,-4.544048 0.78393,-1.380559 2.08471,-2.386493 3.64911,-2.795804 l 6.06336,-1.637245 c 3.125328,-0.856778 6.437978,1.005935 7.294758,4.134737 l 7.10745,25.103265 c 0.44399,1.564402 0.26014,3.201647 -0.55847,4.616892 -0.81863,1.415246 -2.12288,2.421177 -3.68381,2.83049 l -6.36514,1.675403 c -0.48215,0.114471 -1.00246,0.187314 -1.52277,0.187314 z M 100.0884,56.78175 c -0.187318,0 -0.332998,0.03816 -0.520318,0.07632 l -6.06682,1.637245 c -0.52031,0.149155 -0.92963,0.485623 -1.22794,0.93309 -0.26015,0.447467 -0.333,1.005935 -0.18384,1.526245 l 6.80913,25.141422 c 0.29832,1.040622 1.377088,1.675401 2.417718,1.415245 l 6.36166,-1.678869 c 0.52378,-0.145687 0.96778,-0.482155 1.22793,-0.929622 0.26016,-0.485624 0.33648,-1.005935 0.18732,-1.526246 l -7.10745,-25.103265 c -0.222,-0.894935 -1.04062,-1.491558 -1.89739,-1.491558 z m 0,0 M 82.859162,96.894249 c -1.22793,0 -2.45586,-0.332999 -3.53464,-1.040617 l -5.5812,-3.538119 c -0.92963,-0.596618 -1.22794,-1.824559 -0.63131,-2.757648 0.59662,-0.92962 1.82456,-1.189776 2.75417,-0.631309 l 5.58121,3.538114 c 0.59316,0.371156 1.33893,0.520313 2.04656,0.332999 0.70762,-0.183842 1.30077,-0.593155 1.67193,-1.227931 0.70762,-1.227932 0.33646,-2.75765 -0.81863,-3.538117 l -9.96915,-6.62876 c -0.93309,-0.596623 -1.15509,-1.862713 -0.55847,-2.757648 0.59315,-0.929622 1.85924,-1.15509 2.75418,-0.558466 l 9.96916,6.62876 c 2.94149,1.939025 3.83296,5.848299 2.04655,8.904252 -0.92962,1.564403 -2.37955,2.681335 -4.16595,3.090648 -0.48562,0.111 -1.00594,0.183842 -1.56441,0.183842 z m 0,0 m -5.69219,5.289831 c -1.00247,0 -1.97025,-0.26016 -2.86519,-0.78046 l -11.34971,-6.666929 c -0.96778,-0.558461 -1.26262,-1.789865 -0.70416,-2.719491 0.555,-0.967775 1.78294,-1.266089 2.71603,-0.707619 l 11.34624,6.666915 c 0.40932,0.221999 0.89494,0.298313 1.34241,0.187314 0.444,-0.114472 0.81862,-0.412777 1.04062,-0.82209 0.44746,-0.818627 0.18731,-1.824559 -0.59662,-2.306715 l -14.21143,-8.716941 c -0.93309,-0.596623 -1.22793,-1.824556 -0.67294,-2.754179 0.55847,-0.933091 1.82456,-1.231402 2.75418,-0.672935 l 14.2149,8.716945 c 2.60502,1.599088 3.49649,4.953355 2.0084,7.634689 -0.74231,1.377096 -1.97024,2.344876 -3.49649,2.754186 -0.48215,0.11447 -1.00594,0.18731 -1.52624,0.18731 z m 0,0 m -5.06089,5.10252 c -0.81863,0 -1.63725,-0.18731 -2.41772,-0.55847 l -4.91173,-2.42118 c -1.00594,-0.48215 -1.41525,-1.6754 -0.92962,-2.68133 0.48215,-1.00594 1.67539,-1.41525 2.67786,-0.92963 l 4.91174,2.42118 c 0.66947,0.333 1.4534,0.111 1.8974,-0.48562 0.22547,-0.33647 0.33647,-0.78047 0.22547,-1.19325 -0.0763,-0.40931 -0.33647,-0.74231 -0.70763,-0.96777 l -14.47505,-8.415173 c -0.96777,-0.558462 -1.26608,-1.789865 -0.70762,-2.719492 0.55847,-0.967776 1.7864,-1.266088 2.71603,-0.70762 l 14.47504,8.415161 c 1.30425,0.783933 2.26856,2.050021 2.60502,3.538124 0.33647,1.49155 0.0382,3.05595 -0.81862,4.32204 -1.11693,1.52625 -2.79233,2.38303 -4.54057,2.38303 z m 0,0 m -7.1803,2.64665 c -0.66947,0 -1.33893,-0.14916 -1.93555,-0.41279 l -8.96669,-4.09658 c -1.00594,-0.44747 -1.44994,-1.63724 -1.00594,-2.64317 0.44747,-1.00594 1.63724,-1.45341 2.64318,-1.00594 l 8.96669,4.09658 c 0.29831,0.14916 0.66947,0.0382 0.89493,-0.22199 0.1457,-0.22548 0.1457,-0.44748 0.111,-0.55848 -0.0382,-0.11447 -0.111,-0.33647 -0.37462,-0.44747 l -4.98457,-2.68133 c -0.96779,-0.52378 -1.33894,-1.75171 -0.81863,-2.719496 0.52031,-0.967775 1.71009,-1.342403 2.71603,-0.818618 l 4.98804,2.681334 c 1.18978,0.63132 2.04656,1.74825 2.3414,3.0525 0.29831,1.30424 0.0382,2.68133 -0.70416,3.79826 -0.89493,1.26956 -2.38302,1.97719 -3.87111,1.97719 z m 0,0 m -16.78176,2.12286 c -1.26609,0 -2.45586,-0.37462 -3.49649,-1.1204 -1.3424,-0.92962 -2.1957,-2.34486 -2.49402,-3.94742 -0.26015,-1.59909 0.0728,-3.23981 1.04062,-4.54405 l 4.05843,-5.733833 c 0.92962,-1.342403 2.34139,-2.199178 3.94395,-2.497492 1.59909,-0.260157 3.23633,0.07628 4.53712,1.044089 1.3424,0.929627 2.1957,2.344872 2.49402,3.947423 0.26015,1.602563 -0.0728,3.239813 -1.04062,4.544053 l -4.05843,5.7373 c -0.92962,1.33893 -2.3414,2.19571 -3.94395,2.49402 -0.37116,0.0382 -0.70416,0.0763 -1.04063,0.0763 z m 4.05496,-13.930457 c -0.66947,0 -1.30078,0.298313 -1.71009,0.891469 l -4.05496,5.737288 c -0.67293,0.92963 -0.44747,2.27203 0.48216,2.94149 0.92962,0.67295 2.26856,0.44748 2.93802,-0.48214 l 4.05843,-5.7373 c 0.333,-0.44747 0.444,-1.00593 0.37115,-1.564406 -0.111,-0.55847 -0.40931,-1.040626 -0.85678,-1.377088 -0.37115,-0.298314 -0.78047,-0.409313 -1.22793,-0.409313 z m 0,0 m -11.1624,9.906727 c -1.18978,0 -2.37956,-0.33648 -3.42365,-1.07878 -2.67787,-1.90087 -3.30918,-5.58814 -1.41178,-8.269477 l 5.17189,-7.301699 c 1.8974,-2.681336 5.61589,-3.312647 8.25907,-1.415246 1.30425,0.93309 2.15756,2.272021 2.41771,3.836423 0.26016,1.564403 -0.0728,3.128805 -1.00246,4.433051 l -5.1719,7.301708 c -1.15509,1.59908 -2.97964,2.49402 -4.83888,2.49402 z m 5.17188,-15.196554 c -0.59314,0 -1.18977,0.298314 -1.59908,0.818618 l -5.1719,7.301706 c -0.63477,0.85677 -0.4093,2.08471 0.44747,2.71949 0.89147,0.63131 2.08125,0.40931 2.71602,-0.44747 l 5.1719,-7.301696 c 0.63131,-0.856784 0.40931,-2.084715 -0.44747,-2.719491 -0.33647,-0.260157 -0.74578,-0.371157 -1.11694,-0.371157 z m 0,0 m -13.31996,13.035524 c -1.18977,0 -2.38302,-0.33299 -3.42363,-1.07878 -2.67787,-1.90086 -3.31265,-5.588143 -1.41525,-8.269477 l 7.21844,-10.243185 c 0.93309,-1.300777 2.27203,-2.157555 3.83296,-2.421179 1.5644,-0.260156 3.12533,0.07631 4.42958,1.005933 1.30077,0.933092 2.15756,2.272025 2.41772,3.836426 0.26014,1.564404 -0.0728,3.128806 -1.00595,4.433052 l -7.25313,10.24319 c -1.11693,1.63724 -2.94149,2.49402 -4.80074,2.49402 z m 7.25661,-18.099884 c -0.11447,0 -0.22547,0 -0.33647,0.03816 -0.5203,0.07284 -0.96777,0.371155 -1.26609,0.780467 l -7.21844,10.243191 c -0.63131,0.856775 -0.40931,2.084706 0.44746,2.719496 0.85679,0.6313 2.08472,0.4093 2.71603,-0.44747 l 7.21844,-10.243196 c 0.29832,-0.409304 0.40932,-0.929617 0.33647,-1.453403 -0.0763,-0.520307 -0.37463,-0.967774 -0.78393,-1.266086 -0.333,-0.222 -0.70416,-0.371155 -1.11347,-0.371155 z m 0,0 m -12.42849,11.918589 c -1.1551,0 -2.30671,-0.336471 -3.3508,-1.044089 -2.60503,-1.862717 -3.23633,-5.473669 -1.37709,-8.08216 l 2.42118,-3.388963 c 0.89147,-1.266089 2.2304,-2.084713 3.75664,-2.344867 1.52625,-0.263625 3.05249,0.07284 4.31858,0.967778 1.26262,0.891466 2.08125,2.233867 2.3414,3.760111 0.26016,1.526245 -0.0728,3.055962 -0.96778,4.322051 l -2.41771,3.388961 c -1.15162,1.564403 -2.93803,2.421178 -4.72442,2.421178 z m 2.41771,-10.988967 c -0.111,0 -0.18732,0 -0.29832,0.03816 -0.48214,0.07284 -0.89146,0.336464 -1.15161,0.745777 l -2.42118,3.388962 c -0.555,0.818618 -0.37116,1.935558 0.4093,2.49402 0.81863,0.55847 1.93556,0.374628 2.49403,-0.409314 l 2.41771,-3.388952 c 0.26363,-0.371157 0.37463,-0.856785 0.29831,-1.342404 -0.0728,-0.482155 -0.333,-0.891469 -0.74231,-1.151625 -0.29831,-0.263621 -0.66946,-0.374621 -1.00593,-0.374621 z m 0,0 m -4.54058,3.652583 c -0.29484,0 -0.55847,-0.07628 -0.85331,-0.187315 l -8.63369,-4.061891 c -0.96778,-0.443998 -1.41524,-1.564401 -1.00594,-2.566867 l 9.67432,-24.024488 c 0.33646,-0.856778 1.22793,-1.342402 2.16102,-1.227933 l 6.58367,0.967778 c 1.63724,0.221999 3.31264,0.07284 4.83889,-0.485623 l 13.69111,-4.991516 c 1.93556,-0.707623 4.02027,-0.669466 5.91767,0.114468 l 5.21005,2.084712 c 1.00247,0.409312 1.52624,1.564402 1.11693,2.608492 -0.40931,1.005935 -1.5644,1.526246 -2.60502,1.116935 l -5.21005,-2.088182 c -0.96777,-0.40931 -2.04656,-0.40931 -3.05249,-0.03469 l -13.69111,4.988047 c -2.16102,0.783935 -4.54058,1.04409 -6.80914,0.707622 l -5.0262,-0.742309 -8.37006,20.819372 6.92012,3.239803 c 1.00595,0.485619 1.41525,1.637245 0.96779,2.643177 -0.37116,0.672934 -1.07879,1.120404 -1.82456,1.120404 z m 0,0 m 66.01011,-1.828023 c -2.26856,0 -4.53712,-0.66947 -6.47267,-1.973716 L 66.635872,76.262189 c -1.7864,-1.193246 -4.1278,-1.227933 -5.95235,-0.03816 l -7.03114,4.505892 c -1.4534,0.933091 -3.2398,1.193246 -4.91173,0.707622 -1.6754,-0.482155 -3.05249,-1.675401 -3.76012,-3.239802 -1.07877,-2.383024 -0.52031,-5.175358 1.37709,-6.927072 l 12.09203,-11.134651 c 3.12533,-2.868647 7.55491,-3.874581 11.60987,-2.646648 l 9.265,2.830491 c 2.08471,0.63478 4.28043,0.672936 6.36513,0.07632 l 3.86765,-1.078779 c 0.52031,-0.149156 1.04409,-0.07631 1.52624,0.183843 0.44748,0.260156 0.78047,0.707623 0.92963,1.231403 l 7.0346,25.994731 c 0.29831,1.044091 -0.29831,2.122869 -1.33893,2.421185 l -2.60503,0.818618 c -1.11693,0.374628 -2.30671,0.55847 -3.49995,0.55847 z M 63.621542,71.346986 c 1.82456,0 3.64911,0.520311 5.21005,1.564402 l 18.49531,12.289742 c 1.97024,1.304246 4.38796,1.637245 6.62182,0.929623 l 0.78047,-0.260156 -6.0252,-22.196462 -1.93555,0.520311 c -2.83049,0.783935 -5.80668,0.745779 -8.59554,-0.111 l -9.26501,-2.830491 c -2.71602,-0.818622 -5.65751,-0.149155 -7.74222,1.751714 l -12.09202,11.134652 c -0.63131,0.596623 -0.81863,1.526245 -0.48216,2.310181 0.26016,0.52031 0.70762,0.929622 1.26262,1.078778 0.55847,0.149155 1.15509,0.07631 1.63724,-0.222 l 7.03461,-4.509361 c 1.56093,-0.929622 3.31265,-1.449933 5.09558,-1.449933 z m 0,0" />
</svg>
