<?xml version="1.0" encoding="UTF-8" standalone="no"?>
<svg
   width="135.52486"
   zoomAndPan="magnify"
   viewBox="0 0 101.64364 112.49999"
   height="150"
   preserveAspectRatio="xMidYMid"
   version="1.0"
   id="svg45"
   xmlns="http://www.w3.org/2000/svg"
   xmlns:svg="http://www.w3.org/2000/svg">
  <defs
     id="defs9" />
  <path
     id="path45"
     d="m 91.129259,62.402289 c 0.963144,0 1.751816,-0.792155 1.751816,-1.758794 V 25.488554 c 0,-0.966639 -0.788672,-1.758794 -1.751816,-1.758794 H 57.83082 c -0.963149,0 -1.751815,0.792155 -1.751815,1.758794 v 35.154941 c 0,0.966639 0.788666,1.758794 1.751815,1.758794 h 9.027778 v -3.165131 c 0,-0.08725 0,-0.261726 0,-0.352457 h -7.275963 v -5.272892 h 7.886655 v 2.460217 c 0.08724,-0.174483 0.177973,-0.436208 0.265216,-0.614182 0,0 0,-0.08725 0,-0.08725 0.08725,-0.174484 0.174483,-0.439699 0.348966,-0.614182 1.490089,-2.550949 4.292295,-4.219011 7.446957,-4.219011 2.278755,0 4.383026,0.879396 5.873116,2.285733 v -7.998325 h 7.883168 V 58.884692 H 84.20575 c 0,0.09073 0,0.265215 0,0.352457 v 3.165136 z M 67.46929,50.09771 h -7.886655 v -5.272892 h 7.886655 z m 0,-8.79048 h -7.886655 v -5.272892 h 7.886655 z m 0,-8.78699 h -7.886655 v -5.272892 h 7.886655 z m 10.514378,17.57747 h -7.007259 v -5.272892 h 7.007259 z m 0,-8.79048 h -7.007259 v -5.272892 h 7.007259 z m 0,-8.78699 h -7.007259 v -5.272892 h 7.007259 z m 3.507118,-5.272892 h 7.886656 v 5.272892 h -7.886656 z m 0,14.059882 v -5.272892 h 7.886656 v 5.272892 z m 0,0 M 96.3847,71.367252 c -0.788663,0 -1.49009,0.174483 -2.188024,0.526941 -0.788664,-1.846037 -2.63121,-3.07789 -4.731989,-3.07789 -0.788669,0 -1.490092,0.177973 -2.191517,0.52694 -0.788665,-1.842546 -2.627721,-3.0744 -4.731993,-3.0744 -0.614182,0 -1.137632,0.08724 -1.751814,0.265216 v -7.20966 c 0,-2.899916 -2.365997,-5.18565 -5.258934,-5.18565 -2.889447,0 -5.255443,2.372976 -5.255443,5.18565 v 19.07454 c -1.053881,-1.144612 -2.278756,-2.372976 -3.241905,-3.430347 -1.929787,-2.020519 -4.993718,-2.282245 -7.185232,-0.614182 -1.228364,0.879397 -1.929787,2.285735 -2.017029,3.779313 -0.08725,1.49358 0.352457,2.987158 1.402847,4.044528 3.768844,4.041039 10.954076,12.213846 15.071887,19.685229 -0.875906,0.0873 -1.577331,0.79216 -1.577331,1.7588 v 7.03169 c 0,0.96663 0.788666,1.7553 1.751815,1.7553 H 99.01591 c 0.963155,0 1.75181,-0.78866 1.75181,-1.7553 v -7.03169 c 0,-0.79216 -0.52694,-1.40634 -1.228358,-1.67155 1.664568,-5.007683 2.017018,-8.699752 2.104268,-8.964971 0,-0.08728 0,-0.08728 0,-0.174481 V 76.552902 c 0,-2.812674 -2.365994,-5.18565 -5.25893,-5.18565 z m 0.875909,37.615158 H 76.231853 v -3.51409 h 21.028756 z m 0.875908,-16.083887 c -0.08728,0.526937 -0.523453,4.306251 -2.27527,9.052197 H 78.248883 C 74.305554,93.952396 66.858598,85.165409 61.774147,79.805275 c -0.348966,-0.352456 -0.52345,-0.879397 -0.436208,-1.406336 0,-0.53043 0.261725,-0.96664 0.701424,-1.319096 0.788665,-0.614182 1.839056,-0.526941 2.453238,0.174484 2.453239,2.63819 6.218593,6.330262 6.305835,6.504746 0,0 0,0 0.09073,0.08724 0.08724,0.08725 0.08724,0.08725 0.174483,0.174483 0.08725,0 0.08725,0.09073 0.174483,0.09073 0.08724,0 0.08724,0.08725 0.174484,0.08725 0.08725,0 0.08725,0 0.174484,0.08724 0.09073,0 0.09073,0 0.177972,0 0.08724,0 0.174484,0 0.261726,0 0.08725,0 0.261725,0 0.348967,0 0,0 0.09073,0 0.09073,0 0.08724,0 0.174484,0 0.174484,-0.08724 0.08725,0 0.08725,-0.08725 0.174484,-0.08725 0.08724,0 0.08724,-0.09073 0.174483,-0.09073 0.08725,-0.08725 0.174483,-0.174483 0.261725,-0.261725 0.09073,-0.08724 0.177974,-0.174484 0.177974,-0.265216 0,-0.08724 0.08724,-0.08724 0.08724,-0.174483 0,-0.08725 0.08725,-0.08725 0.08725,-0.174483 0,-0.09073 0,-0.09073 0.08724,-0.177973 0,-0.08724 0,-0.08724 0.08724,-0.174484 0,-0.08725 0,-0.177973 0,-0.265215 0,0 0,0 0,-0.08724 V 59.237158 c 0,-0.966639 0.788666,-1.668063 1.751815,-1.668063 0.966639,0 1.755305,0.788666 1.755305,1.668063 v 23.377303 c 0,0.970128 0.785176,1.758794 1.751814,1.758794 0.963149,0 1.751815,-0.788666 1.751815,-1.758794 V 71.367252 c 0,-0.966639 0.788665,-1.671552 1.751814,-1.671552 0.963149,0 1.751815,0.792155 1.751815,1.671552 v 13.006003 c 0,0.966638 0.788665,1.758794 1.751814,1.758794 0.966639,0 1.755305,-0.792156 1.755305,-1.758794 V 74.001953 c 0,-0.966639 0.788666,-1.668062 1.751812,-1.668062 0.963154,0 1.751817,0.788666 1.751817,1.668062 v 13.009492 c 0,0.966639 0.788663,1.755304 1.751817,1.755304 0.963145,0 1.751817,-0.788665 1.751817,-1.755304 v -10.3713 c 0,-0.96664 0.788663,-1.671553 1.751808,-1.671553 0.966637,0 1.75531,0.792155 1.75531,1.671553 v 16.258378 z m 0,0 M 54.327191,70.313371 h 5.782384 c 2.01703,-0.792154 4.205053,-0.704913 6.222083,0 H 66.94584 V 66.795784 H 54.327191 c -0.963149,0 -1.751814,-0.792155 -1.751814,-1.758794 V 5.2728924 c 0,-0.9666385 0.788665,-1.7553045 1.751814,-1.7553045 h 40.305692 c 0.963154,0 1.751817,0.788666 1.751817,1.7553045 V 65.03699 c 0,0.966639 -0.788663,1.758794 -1.751817,1.758794 h -0.261726 c 0.436217,0.352457 0.875908,0.704913 1.312116,1.05388 0.265219,0 0.439701,0 0.701427,0 0.875909,0 1.664572,0.09073 2.453235,0.352457 0.701427,-0.879397 1.053883,-1.933278 1.053883,-3.165131 V 5.2728924 C 99.891818,2.372976 97.525819,0 94.632883,0 H 54.327191 C 51.434254,0 49.068257,2.372976 49.068257,5.2728924 V 65.03699 c 0,2.903405 2.365997,5.276381 5.258934,5.276381 z m 0,0 m 12.266192,26.189976 v 10.720273 c 0,0.96664 -0.788666,1.75879 -1.751815,1.75879 H 5.2589337 c -0.963149,0 -1.751815,-0.79215 -1.751815,-1.75879 V 5.2728924 c 0,-0.9666385 0.788666,-1.7553045 1.751815,-1.7553045 H 45.739112 C 46.004327,2.198492 46.527777,1.0538801 47.316443,0 H 5.2589337 C 2.3659962,0 0,2.372976 0,5.2728924 V 107.22361 C 0,110.12702 2.3659962,112.5 5.2589337,112.5 H 64.841568 c 2.892938,0 5.258934,-2.37297 5.258934,-5.27639 v -5.62186 c -0.09073,-0.0907 -0.177974,-0.17797 -0.265215,-0.2652 -0.963149,-1.580826 -2.01354,-3.165138 -3.241904,-4.833203 z m 0,0 M 92.881075,8.7904803 c 0,-0.9666385 -0.788672,-1.7587939 -1.751816,-1.7587939 H 57.83082 c -0.963149,0 -1.751815,0.7921554 -1.751815,1.7587939 V 17.57747 c 0,0.96664 0.788666,1.758794 1.751815,1.758794 h 33.298439 c 0.963144,0 1.751816,-0.792154 1.751816,-1.758794 z M 89.377442,15.822166 H 59.582635 v -5.276382 h 29.794807 z m 0,0 M 29.791317,19.336264 H 45.564628 V 15.822166 H 29.791317 c -0.963149,0 -1.751814,0.788666 -1.751814,1.755304 0,0.96664 0.788665,1.758794 1.751814,1.758794 z m 0,0 m 0,21.091569 H 45.564628 V 36.913735 H 29.791317 c -0.963149,0 -1.751814,0.792155 -1.751814,1.758794 0,0.966639 0.788665,1.755304 1.751814,1.755304 z m 0,0 m 0,21.095058 H 45.564628 V 58.008794 H 29.791317 c -0.963149,0 -1.751814,0.788665 -1.751814,1.755303 0,0.96664 0.788665,1.758794 1.751814,1.758794 z m 0,0 m 0,24.609158 c -0.963149,0 -1.751814,0.792154 -1.751814,1.758794 0,0.966638 0.788665,1.755302 1.751814,1.755302 h 12.269682 c 0.963149,0 1.751815,-0.788664 1.751815,-1.755302 0,-0.96664 -0.788666,-1.758794 -1.751815,-1.758794 z m 0,0 m 27.163596,-5.272893 c 0,-0.966639 -0.788666,-1.758794 -1.751815,-1.758794 H 29.791317 c -0.963149,0 -1.751814,0.792155 -1.751814,1.758794 0,0.966639 0.788665,1.755305 1.751814,1.755305 h 25.411781 c 0.963149,0 1.751815,-0.788666 1.751815,-1.755305 z m 0,0 M 21.028755,76.465661 H 10.514377 c -1.926298,0 -3.5036291,1.58082 -3.5036291,3.514098 v 10.545788 c 0,1.933275 1.5773311,3.517588 3.5036291,3.517588 h 10.514378 c 1.929788,0 3.507119,-1.584313 3.507119,-3.517588 V 79.979759 c 0,-1.933278 -1.577331,-3.514098 -3.507119,-3.514098 z M 10.514377,90.525547 V 79.979759 h 10.514378 v 10.545788 z m 0,0 m 19.27694,-21.97097 h 12.269682 c 0.963149,0 1.751815,-0.792154 1.751815,-1.758793 0,-0.966639 -0.788666,-1.758794 -1.751815,-1.758794 H 29.791317 c -0.963149,0 -1.751814,0.792155 -1.751814,1.758794 0,0.966639 0.788665,1.758793 1.751814,1.758793 z m 0,0 m -5.255443,-9.669876 c 0,-1.933278 -1.577331,-3.514098 -3.507119,-3.514098 H 10.514377 c -1.926298,0 -3.5036291,1.58082 -3.5036291,3.514098 v 10.549273 c 0,1.933278 1.5773311,3.514099 3.5036291,3.514099 h 10.514378 c 1.929788,0 3.507119,-1.580821 3.507119,-3.514099 z M 10.514377,69.433974 V 58.884701 h 10.514378 v 10.549273 z m 0,0 m 19.27694,-21.974455 h 12.269682 c 0.963149,0 1.751815,-0.788666 1.751815,-1.755304 0,-0.966639 -0.788666,-1.758794 -1.751815,-1.758794 H 29.791317 c -0.963149,0 -1.751814,0.792155 -1.751814,1.758794 0,0.966638 0.788665,1.755304 1.751814,1.755304 z m 0,0 m -5.255443,-9.666388 c 0,-1.933277 -1.577331,-3.517587 -3.507119,-3.517587 H 10.514377 c -1.926298,0 -3.5036291,1.58431 -3.5036291,3.517587 v 10.545785 c 0,1.933277 1.5773311,3.517588 3.5036291,3.517588 h 10.514378 c 1.929788,0 3.507119,-1.584311 3.507119,-3.517588 z M 10.514377,48.338916 V 37.793131 h 10.514378 v 10.545785 z m 0,0 m 19.27694,-21.970965 h 12.269682 c 0.963149,0 1.751815,-0.792156 1.751815,-1.758794 0,-0.966639 -0.788666,-1.758794 -1.751815,-1.758794 H 29.791317 c -0.963149,0 -1.751814,0.792155 -1.751814,1.758794 0,0.966638 0.788665,1.758794 1.751814,1.758794 z m 0,0 m -5.255443,-9.669878 c 0,-1.933277 -1.577331,-3.514097 -3.507119,-3.514097 H 10.514377 c -1.926298,0 -3.5036291,1.58082 -3.5036291,3.514097 v 10.549275 c 0,1.933277 1.5773311,3.514098 3.5036291,3.514098 h 10.514378 c 1.929788,0 3.507119,-1.580821 3.507119,-3.514098 z M 10.514377,27.247348 V 16.698073 h 10.514378 v 10.549275 z m 0,0"
     style="stroke-width:0.893356" />
</svg>
