<?xml version="1.0" encoding="UTF-8" standalone="no"?>
<svg
   width="120.69105"
   zoomAndPan="magnify"
   viewBox="0 0 90.518286 112.49999"
   height="150"
   preserveAspectRatio="xMidYMid"
   version="1.0"
   id="svg45"
   xmlns="http://www.w3.org/2000/svg"
   xmlns:svg="http://www.w3.org/2000/svg">
  <defs
     id="defs9" />
  <path
     id="path28"
     d="M 73.497828,80.03866 57.931066,76.57239 v -3.79123 c 2.56476,-1.48853 4.804557,-3.37192 6.715897,-5.64316 h 5.954155 c 0.359905,0 0.712821,-0.035 1.062244,-0.10483 0.349422,-0.0699 0.688361,-0.17471 1.016819,-0.31099 0.331951,-0.13627 0.642937,-0.304 0.939945,-0.50317 0.297009,-0.19917 0.569559,-0.4228 0.824637,-0.67788 0.251584,-0.25158 0.475214,-0.52762 0.674385,-0.82463 0.19917,-0.29701 0.363399,-0.608 0.499674,-0.93994 0.136275,-0.32846 0.241101,-0.67089 0.310985,-1.02032 0.06989,-0.35292 0.104827,-0.70583 0.104827,-1.06225 V 59.8805 c 0.356411,0 0.709327,-0.035 1.05875,-0.10483 0.349421,-0.0699 0.688362,-0.17471 1.020312,-0.31099 0.328458,-0.13627 0.639443,-0.304 0.936453,-0.50317 0.297008,-0.19916 0.573051,-0.42279 0.824635,-0.67788 0.251584,-0.25158 0.475215,-0.52762 0.674386,-0.82463 0.19917,-0.29702 0.366893,-0.61149 0.503168,-0.93995 0.136274,-0.33195 0.237607,-0.67089 0.307492,-1.02031 0.06989,-0.35292 0.104826,-0.70583 0.104826,-1.06224 V 43.54849 c 0,-0.56256 -0.08736,-1.11115 -0.258572,-1.64577 -0.171217,-0.53462 -0.419307,-1.03079 -0.740775,-1.48854 -0.324963,-0.45774 -0.712822,-0.85608 -1.156588,-1.19503 -0.447261,-0.33894 -0.936452,-0.601 -1.46408,-0.7862 V 32.6605 c 0,-1.06923 -0.05241,-2.13497 -0.15724,-3.20071 C 77.582574,28.39406 77.425335,27.3388 77.219175,26.29054 77.009523,25.23877 76.75095,24.20448 76.439964,23.18067 76.132473,22.15686 75.772567,21.15053 75.363744,20.16166 74.954919,19.1728 74.50067,18.2084 73.997502,17.26495 73.494334,16.32151 72.945742,15.40603 72.351723,14.515 71.757706,13.62747 71.125251,12.76789 70.447372,11.93976 69.769493,11.11512 69.053177,10.32193 68.298425,9.56718 67.543673,8.80894 66.753979,8.09262 65.929343,7.41474 65.104706,6.73336 64.248621,6.09742 63.361089,5.5034 62.473557,4.90938 61.561564,4.36079 60.618124,3.85762 59.678178,3.35096 58.713772,2.89322 57.728402,2.48439 56.743031,2.07557 55.736695,1.71566 54.716381,1.40468 53.696069,1.0937 52.661779,0.83512 51.613512,0.62547 50.56874,0.41931 49.513484,0.26207 48.45124,0.15724 47.388997,0.05241 46.323259,0 45.257521,0 44.191784,0 43.126045,0.0524 42.063801,0.15724 41.001558,0.26207 39.946303,0.41931 38.90153,0.62547 37.853263,0.83512 36.818973,1.0937 35.79866,1.40468 34.778347,1.71566 33.772011,2.07557 32.786641,2.48439 31.80127,2.89322 30.836864,3.35096 29.896919,3.85762 28.956973,4.36079 28.041486,4.90938 27.153953,5.5034 26.266421,6.09742 25.410337,6.73336 24.5857,7.41474 c -0.824636,0.67788 -1.614331,1.3942 -2.369083,2.15244 -0.754752,0.75475 -1.471068,1.54794 -2.148946,2.37258 -0.67788,0.82813 -1.310334,1.68771 -1.904352,2.57524 -0.594018,0.89103 -1.142611,1.80651 -1.645779,2.74995 -0.503168,0.94345 -0.957417,1.90785 -1.366241,2.89671 -0.408825,0.98887 -0.768729,1.9952 -1.07622,3.01901 -0.310987,1.02381 -0.569559,2.0581 -0.779212,3.10987 -0.20616,1.04826 -0.363399,2.10352 -0.468226,3.16925 -0.104827,1.06574 -0.15724,2.13148 -0.15724,3.20071 v 5.77245 c -0.527628,0.1852 -1.013324,0.44726 -1.460585,0.7862 -0.44726,0.33895 -0.835119,0.73729 -1.156588,1.19503 -0.3249623,0.45775 -0.5730523,0.95392 -0.7442693,1.48854 -0.171217,0.53462 -0.258573,1.08321 -0.258573,1.64577 V 54.4365 c 0,0.35641 0.03494,0.70932 0.104827,1.06224 0.06989,0.34942 0.171217,0.68836 0.307492,1.02031 0.136274,0.32846 0.303996,0.64293 0.503168,0.93995 0.1991703,0.29701 0.4228003,0.57305 0.6743843,0.82463 0.251585,0.25509 0.527628,0.47872 0.824637,0.67788 0.297009,0.19917 0.607995,0.3669 0.939946,0.50317 0.328457,0.13628 0.667396,0.2411 1.016819,0.31099 0.349422,0.0699 0.702338,0.10483 1.058749,0.10483 h 7.135203 c 1.041278,2.71151 2.505358,5.17493 4.385249,7.38678 1.883386,2.21534 4.077758,4.0498 6.583116,5.51388 v 3.79123 l -15.566762,3.46627 c -1.202013,0.26207 -2.369083,0.62198 -3.5082,1.08321 -1.139116,0.46124 -2.232808,1.01333 -3.27758,1.66326 -1.0412793,0.64642 -2.0231553,1.38021 -2.9456303,2.19436 -0.918981,0.81416 -1.764582,1.70169 -2.533311,2.6626 C 3.9837633,88.603 3.3023897,89.61982 2.7083723,90.69605 2.11086,91.77226 1.6111859,92.89391 1.2058561,94.05399 0.80052627,95.21756 0.49652867,96.4056 0.29386417,97.6181 c -0.2026654,1.21599 -0.3005036,2.43897 -0.29351470367,3.66893 v 9.39946 c 0,0.2411 0.0454250037,0.47173 0.13627490367,0.69536 0.090849,0.22013 0.2236302,0.4158 0.3913529,0.58702 0.1712167,0.17122 0.3668932,0.3005 0.58702943,0.39485 C 1.338637,112.45452 1.5692552,112.5 1.8103564,112.5 H 88.704689 c 0.2411,0 0.471716,-0.0454 0.695347,-0.13628 0.220132,-0.0943 0.415809,-0.22363 0.587029,-0.39485 0.167723,-0.17122 0.300506,-0.36689 0.391353,-0.58702 0.09085,-0.22363 0.139769,-0.45426 0.139769,-0.69536 v -9.39946 c 0.0036,-1.22996 -0.09435,-2.45294 -0.297008,-3.66893 -0.202662,-1.2125 -0.506665,-2.40054 -0.911991,-3.56411 -0.405334,-1.16008 -0.905005,-2.28173 -1.502518,-3.35794 -0.594015,-1.07623 -1.27539,-2.09305 -2.044123,-3.05396 -0.768725,-0.96091 -1.614328,-1.84844 -2.533309,-2.6626 -0.91898,-0.81415 -1.900857,-1.54794 -2.945629,-2.19436 -1.044773,-0.64993 -2.138464,-1.20202 -3.277581,-1.66326 -1.135622,-0.46123 -2.306187,-0.82114 -3.5082,-1.08321 z m -12.925129,0.83513 -6.859159,11.01379 -5.541837,-3.34049 8.525903,-8.5259 z M 72.41462,61.69399 c 0,0.24111 -0.04892,0.47172 -0.139769,0.69535 -0.09085,0.22014 -0.22363,0.41582 -0.391353,0.58703 -0.171218,0.17122 -0.366894,0.30051 -0.58703,0.39485 -0.22363,0.0908 -0.454249,0.13627 -0.69535,0.13627 h -3.420844 c 0.698844,-1.16007 1.303345,-2.36907 1.810008,-3.62699 H 72.41462 Z M 66.981103,38.1045 H 61.24359 c -1.457091,0 -2.889722,-0.18519 -4.297894,-0.55209 -1.408172,-0.37038 -2.746459,-0.91549 -4.018357,-1.6318 -1.268402,-0.71632 -2.42499,-1.58288 -3.469762,-2.5997 -1.044772,-1.01682 -1.942788,-2.14895 -2.69754,-3.39988 -0.08036,-0.13627 -0.174711,-0.25857 -0.286526,-0.3669 -0.11531,-0.11181 -0.237607,-0.20616 -0.373882,-0.28302 -0.136275,-0.0803 -0.279538,-0.13628 -0.433284,-0.17821 -0.150252,-0.0419 -0.307491,-0.0594 -0.461237,-0.0594 -0.15724,0 -0.31448,0.0174 -0.464732,0.0594 -0.153745,0.042 -0.297008,0.0978 -0.433283,0.17821 -0.136275,0.0768 -0.258573,0.17121 -0.373882,0.28302 -0.111815,0.10833 -0.20616,0.23063 -0.286527,0.3669 -0.754752,1.25093 -1.652767,2.38306 -2.697539,3.39988 -1.044773,1.01682 -2.201361,1.88338 -3.469764,2.5997 -1.271897,0.71631 -2.610184,1.26142 -4.018355,1.6318 -1.408172,0.3669 -2.840804,0.55209 -4.297895,0.55209 h -5.629192 v -5.444 c 0,-0.71283 0.03494,-1.42564 0.104827,-2.13497 0.06989,-0.70933 0.174711,-1.41166 0.310985,-2.114 0.139769,-0.69885 0.310987,-1.38721 0.520639,-2.07208 0.20616,-0.68138 0.443767,-1.35227 0.716317,-2.01267 0.272548,-0.65691 0.576546,-1.29985 0.911991,-1.92882 0.335446,-0.62895 0.698845,-1.24045 1.097187,-1.83446 0.394847,-0.59402 0.817647,-1.16358 1.268402,-1.71567 0.450754,-0.55208 0.929464,-1.07971 1.432632,-1.58288 0.503168,-0.50665 1.027301,-0.98187 1.579388,-1.43612 0.548593,-0.45075 1.121646,-0.87705 1.712169,-1.2719 0.590523,-0.39834 1.202013,-0.76173 1.827479,-1.10068 0.62896,-0.33544 1.271897,-0.63944 1.928811,-0.91199 0.656913,-0.27255 1.32431,-0.51365 2.005683,-0.71981 0.681373,-0.20616 1.369735,-0.38087 2.06858,-0.52064 0.698844,-0.13627 1.401184,-0.2411 2.110511,-0.31099 0.705833,-0.0699 1.41516,-0.10482 2.127981,-0.10482 0.712822,0 1.422149,0.035 2.127982,0.10482 0.709327,0.0699 1.411666,0.17472 2.11051,0.31099 0.698845,0.13977 1.387206,0.31448 2.06858,0.52064 0.681374,0.20616 1.34877,0.44726 2.005683,0.71981 0.656915,0.27255 1.299852,0.57655 1.928811,0.91199 0.625466,0.33895 1.236956,0.70234 1.827479,1.10068 0.590524,0.39485 1.163576,0.82115 1.712169,1.2719 0.552087,0.45425 1.076221,0.92947 1.579389,1.43612 0.503168,0.50317 0.981876,1.0308 1.432631,1.58288 0.450755,0.55209 0.873556,1.12165 1.268403,1.71567 0.398341,0.59401 0.76174,1.20551 1.097185,1.83446 0.335446,0.62897 0.639443,1.27191 0.911993,1.92882 0.272549,0.6604 0.510156,1.33129 0.71981,2.01267 0.206159,0.68487 0.377376,1.37323 0.517145,2.07208 0.139768,0.70234 0.241102,1.40467 0.310985,2.114 0.06989,0.70933 0.104827,1.42214 0.104827,2.13497 z m 10.863538,16.332 c 0,0.2411 -0.04542,0.47171 -0.139769,0.69185 -0.09085,0.22363 -0.220135,0.41931 -0.391353,0.59052 -0.167722,0.17122 -0.366893,0.30051 -0.587029,0.39135 -0.220135,0.0943 -0.454248,0.13977 -0.691856,0.13977 h -6.031028 c 0.394847,-1.79253 0.594018,-3.60603 0.597512,-5.44399 v -9.071 h 5.433516 c 0.237608,0 0.471721,0.0454 0.691856,0.13627 0.220136,0.0943 0.419307,0.22363 0.587029,0.39485 0.171218,0.16772 0.300504,0.36689 0.391353,0.58703 0.09435,0.22363 0.139769,0.45424 0.139769,0.69534 z M 45.257521,3.62701 c 0.950429,0 1.893869,0.0489 2.840803,0.13976 0.94344,0.0943 1.879892,0.23412 2.809355,0.41931 0.932958,0.18519 1.851938,0.41581 2.756942,0.69186 0.908497,0.27604 1.803018,0.5975 2.676575,0.9609 0.87705,0.3634 1.733134,0.76874 2.571747,1.216 0.835119,0.45075 1.649274,0.93644 2.438967,1.46757 0.786201,0.52763 1.547941,1.09369 2.281728,1.6947 0.733787,0.6045 1.436125,1.24394 2.107016,1.91483 0.670891,0.67089 1.30684,1.37672 1.907846,2.11052 0.601006,0.73378 1.16707,1.49902 1.694698,2.28871 0.524133,0.78969 1.013325,1.60385 1.460585,2.44246 0.447261,0.83861 0.85259,1.6982 1.215989,2.57874 0.363399,0.87705 0.681374,1.77157 0.957417,2.68006 0.276044,0.912 0.503168,1.83098 0.688362,2.76394 0.185194,0.93295 0.324963,1.8729 0.419307,2.81983 0.09085,0.94694 0.139769,1.89387 0.139769,2.8443 v 5.444 h -3.623509 v -5.444 c 0,-0.83163 -0.03844,-1.65976 -0.118804,-2.48789 -0.08386,-0.82813 -0.206159,-1.65277 -0.366893,-2.46692 -0.160734,-0.81765 -0.363399,-1.62131 -0.604501,-2.418 C 69.269819,24.49101 68.990282,23.7083 68.672307,22.93957 68.354333,22.17085 68.001416,21.41958 67.610063,20.6858 67.21871,19.95201 66.792415,19.23919 66.331178,18.54734 65.86994,17.85548 65.377255,17.18808 64.849628,16.54514 64.322,15.9022 63.766418,15.28722 63.179389,14.6967 62.59236,14.10967 61.977376,13.5506 61.337934,13.02296 60.694997,12.49534 60.0276,12.00266 59.339238,11.53793 58.647383,11.07668 57.938055,10.65039 57.204268,10.25554 56.473976,9.86419 55.722718,9.51127 54.957483,9.18981 54.188754,8.87183 53.409543,8.59229 52.616354,8.35119 51.819671,8.11009 51.016,7.90742 50.201847,7.74669 49.387692,7.58246 48.56655,7.46016 47.741914,7.3798 46.917276,7.2995 46.089146,7.2575 45.257521,7.2575 c -0.831625,0 -1.656262,0.042 -2.484392,0.1223 -0.824637,0.0803 -1.645779,0.20266 -2.459933,0.36689 -0.814154,0.16073 -1.617825,0.3634 -2.414508,0.6045 -0.793189,0.2411 -1.5724,0.52064 -2.341129,0.83862 -0.765235,0.32146 -1.516493,0.67438 -2.246785,1.06573 -0.733787,0.39485 -1.443114,0.82114 -2.13497,1.28239 -0.688362,0.46473 -1.355759,0.95741 -1.995201,1.48503 -0.642937,0.52764 -1.25792,1.08671 -1.844949,1.67374 -0.58703,0.59052 -1.142611,1.2055 -1.670239,1.84844 -0.527628,0.64294 -1.020313,1.31034 -1.481551,2.0022 -0.461237,0.69185 -0.887533,1.40467 -1.278885,2.13846 -0.391353,0.73378 -0.74427,1.48505 -1.062244,2.25377 -0.317974,0.76873 -0.597512,1.55144 -0.838614,2.34812 -0.241101,0.79669 -0.443765,1.60035 -0.6045,2.418 -0.160734,0.81415 -0.283032,1.63879 -0.363399,2.46692 -0.08386,0.82813 -0.122298,1.65626 -0.122298,2.48789 v 5.444 h -3.623509 v -5.444 c 0,-0.95043 0.04892,-1.89736 0.139769,-2.8443 0.09434,-0.94693 0.234113,-1.88688 0.419307,-2.81983 0.185193,-0.93296 0.415813,-1.85194 0.688362,-2.76394 0.276043,-0.90849 0.597512,-1.80301 0.957417,-2.68006 0.363399,-0.88054 0.768729,-1.74013 1.215989,-2.57874 0.447261,-0.83861 0.936452,-1.65277 1.460585,-2.44246 0.527628,-0.78969 1.093692,-1.55493 1.694699,-2.28871 0.601006,-0.7338 1.236954,-1.43963 1.907845,-2.11052 0.670891,-0.67089 1.373229,-1.31033 2.107016,-1.91483 0.733788,-0.60101 1.495528,-1.16707 2.285221,-1.6947 0.786201,-0.53113 1.600355,-1.01682 2.435474,-1.46757 0.838614,-0.44726 1.694698,-0.8526 2.571748,-1.216 0.87705,-0.3634 1.768076,-0.68486 2.676574,-0.9609 0.908498,-0.27605 1.827479,-0.50667 2.756943,-0.69186 0.929462,-0.18519 1.865914,-0.32496 2.812849,-0.41931 0.943439,-0.0908 1.890374,-0.13976 2.837308,-0.13976 z M 14.480408,56.24999 c -0.237607,0 -0.468226,-0.0454 -0.691856,-0.13977 -0.220136,-0.0908 -0.415813,-0.22013 -0.58703,-0.39135 C 13.030306,55.54766 12.90102,55.35198 12.81017,55.12835 12.71583,54.90821 12.670401,54.6776 12.670401,54.4365 V 43.54849 c 0,-0.2411 0.04542,-0.47171 0.139769,-0.69534 0.09085,-0.22014 0.220136,-0.41931 0.391352,-0.58703 0.171217,-0.17122 0.366894,-0.30051 0.58703,-0.39485 0.22363,-0.0909 0.454249,-0.13627 0.691856,-0.13627 h 5.433516 v 9.071 c 0.0035,1.83796 0.202665,3.65146 0.597512,5.44399 z M 23.533939,50.806 v -9.071 h 5.737514 c 1.533964,-0.007 3.050456,-0.1817 4.545983,-0.52414 1.495527,-0.34593 2.935147,-0.85259 4.318859,-1.51999 1.383712,-0.66389 2.676575,-1.47805 3.878588,-2.43547 1.202012,-0.95741 2.281727,-2.03364 3.242638,-3.23215 0.960911,1.19851 2.04412,2.27474 3.246133,3.23215 1.198519,0.95742 2.491381,1.77158 3.875093,2.43547 1.383712,0.6674 2.823332,1.17406 4.318859,1.51999 1.495527,0.34244 3.01202,0.51715 4.545984,0.52414 h 5.737513 v 9.071 c -0.0035,2.28173 -0.356411,4.50405 -1.058749,6.67396 -0.702339,2.16991 -1.719158,4.17909 -3.050457,6.02753 H 50.36258 C 50.222812,63.10567 50.034124,62.72828 49.803505,62.36838 49.576381,62.01197 49.307326,61.68701 48.999834,61.39349 48.692342,61.09648 48.356897,60.84141 47.990003,60.62825 47.62311,60.41162 47.238746,60.2404 46.833415,60.1181 c -0.408824,-0.12579 -0.821142,-0.20266 -1.247437,-0.22712 -0.422801,-0.0279 -0.842108,-0.007 -1.261414,0.0664 -0.419307,0.0734 -0.824637,0.19219 -1.212496,0.35991 -0.391353,0.16423 -0.758246,0.37738 -1.100679,0.62896 -0.33894,0.25158 -0.646432,0.54161 -0.922475,0.86657 -0.27255,0.32496 -0.506663,0.67788 -0.695351,1.05875 -0.192182,0.38087 -0.335445,0.77921 -0.433283,1.19153 -0.101332,0.41581 -0.150252,0.83512 -0.150252,1.25792 0,0.42629 0.04892,0.8456 0.150252,1.26141 0.09784,0.41232 0.241101,0.81066 0.433283,1.19154 0.188688,0.38087 0.422801,0.73378 0.695351,1.05874 0.276043,0.32497 0.583535,0.61499 0.922475,0.86657 0.342433,0.25159 0.709326,0.46473 1.100679,0.62896 0.387859,0.16772 0.793189,0.28653 1.212496,0.35991 0.419306,0.0734 0.838613,0.0943 1.261414,0.0664 0.426295,-0.0279 0.838613,-0.10133 1.247437,-0.22713 0.405331,-0.1223 0.789695,-0.29351 1.156588,-0.51015 0.366894,-0.21315 0.702339,-0.46823 1.009831,-0.76524 0.307492,-0.29352 0.576547,-0.61848 0.803671,-0.97488 0.230619,-0.35991 0.419307,-0.73728 0.559075,-1.13912 h 9.214265 c -0.779212,0.68486 -1.603847,1.31033 -2.473909,1.87639 -0.870062,0.56956 -1.775065,1.06924 -2.718505,1.50602 -0.939946,0.43677 -1.907846,0.80716 -2.900205,1.10417 -0.995854,0.297 -2.005684,0.52413 -3.032986,0.67438 -1.023807,0.15375 -2.058096,0.23412 -3.09588,0.23761 -1.037785,0.007 -2.06858,-0.0629 -3.095882,-0.20615 C 41.232177,72.18718 40.218852,71.97054 39.222999,71.68051 38.227145,71.39049 37.255751,71.03409 36.308817,70.6043 35.365377,70.17451 34.453385,69.68182 33.579829,69.12275 32.70278,68.56367 31.874648,67.94519 31.088448,67.26731 30.302249,66.58944 29.564967,65.85914 28.883594,65.07294 28.202221,64.29023 27.580249,63.4621 27.017679,62.58855 26.451615,61.715 25.955436,60.80649 25.522152,59.86306 25.088868,58.91612 24.721974,57.94472 24.42846,56.94887 24.134945,55.95302 23.911315,54.9397 23.761064,53.9089 23.610812,52.8816 23.533939,51.84731 23.533939,50.80603 Z m 23.533589,14.515 c 0,0.2411 -0.04542,0.47521 -0.136274,0.69535 -0.09434,0.22363 -0.22363,0.4193 -0.394848,0.59052 -0.167722,0.16773 -0.363399,0.30051 -0.587029,0.39136 -0.220135,0.0943 -0.450754,0.13977 -0.691856,0.13977 -0.241102,0 -0.47172,-0.0455 -0.691856,-0.13977 -0.22363,-0.0909 -0.419307,-0.22363 -0.58703,-0.39136 -0.171216,-0.17122 -0.300502,-0.36689 -0.394846,-0.59052 -0.09085,-0.22014 -0.136275,-0.45425 -0.136275,-0.69535 0,-0.23761 0.04542,-0.47173 0.136275,-0.69186 0.09434,-0.22363 0.22363,-0.4193 0.394846,-0.59053 0.167723,-0.16772 0.3634,-0.30049 0.58703,-0.39135 0.220136,-0.0943 0.450754,-0.13977 0.691856,-0.13977 0.241102,0 0.471721,0.0454 0.691856,0.13977 0.22363,0.0909 0.419307,0.22363 0.587029,0.39135 0.171218,0.17123 0.300504,0.3669 0.394848,0.59053 0.09085,0.22013 0.136274,0.45425 0.136274,0.69186 z m -1.810007,10.88799 c 3.123835,-0.004 6.139349,-0.57304 9.053531,-1.70518 v 2.77791 l -9.053531,9.07101 -9.050037,-9.07101 v -2.77791 c 2.910688,1.13214 5.926202,1.70169 9.050037,1.70518 z m -11.440085,3.8122 8.525903,8.5259 -5.538342,3.34049 -6.862654,-11.01379 z M 3.6203641,101.28703 c 0,-1.0238 0.083861,-2.04062 0.2585721,-3.05046 0.1712176,-1.00982 0.4262955,-1.99869 0.7652345,-2.96659 0.33894,-0.96441 0.758247,-1.89736 1.254427,-2.79189 0.496179,-0.89801 1.062243,-1.74361 1.701686,-2.54379 0.642937,-0.79668 1.341782,-1.53746 2.107016,-2.21883 0.7652353,-0.67788 1.5828833,-1.28937 2.4494513,-1.83097 0.866567,-0.54161 1.775064,-1.00634 2.721998,-1.39419 0.946935,-0.38787 1.918329,-0.69186 2.914182,-0.912 l 8.400112,-1.817 8.473489,13.61 c 0.171217,0.25508 0.394847,0.45425 0.667397,0.59752 0.272549,0.13977 0.566064,0.20616 0.873555,0.20266 0.328458,-0.004 0.635949,-0.0874 0.922475,-0.25508 l 6.317555,-3.79472 v 16.7513 H 18.103917 V 99.7985 h -3.623509 v 9.07449 H 3.6203641 Z m 83.2743149,7.58596 H 76.034634 V 99.7985 H 72.41462 v 9.07449 H 47.067528 v -16.7513 l 6.317555,3.79472 c 0.286526,0.16772 0.594018,0.25158 0.925969,0.25508 0.310986,0 0.604501,-0.0768 0.87705,-0.22713 0.276043,-0.15374 0.492686,-0.3599 0.660408,-0.62895 l 8.47349,-13.66242 8.400111,1.8135 c 0.999348,0.22363 1.97773,0.53112 2.928158,0.92248 0.950429,0.38786 1.858927,0.85609 2.732483,1.40118 0.870061,0.54511 1.687709,1.16009 2.456439,1.84495 0.765234,0.68488 1.467572,1.42914 2.107015,2.23281 0.642937,0.80717 1.209002,1.65976 1.705185,2.56127 0.496172,0.90151 0.911991,1.83796 1.247436,2.80935 0.335445,0.9714 0.587029,1.96725 0.754752,2.98057 0.167723,1.01682 0.248086,2.03714 0.2411,3.06793 z m 0,0"
     style="stroke-width:0.894521" />
</svg>
